SubSource-HROTdd_VROTn_SLENn_SANGx.ufo
<glyph name="dollar" format="2">
  <advance width="500"/>
  <unicode hex="0024"/>
  <outline>
    <contour>
      <point x="327" y="585" type="curve" smooth="yes"/>
      <point x="323" y="553"/>
      <point x="316" y="546"/>
      <point x="338" y="541" type="curve" smooth="yes"/>
      <point x="369" y="534"/>
      <point x="602" y="406"/>
      <point x="321" y="453" type="curve" smooth="yes"/>
      <point x="306" y="455"/>
      <point x="290" y="456"/>
      <point x="273" y="456" type="curve" smooth="yes"/>
      <point x="236" y="456"/>
      <point x="146" y="443"/>
      <point x="146" y="414" type="curve" smooth="yes"/>
      <point x="146" y="395"/>
      <point x="241" y="368"/>
      <point x="270" y="360" type="curve" smooth="yes"/>
      <point x="388" y="327"/>
      <point x="466" y="296"/>
      <point x="466" y="216" type="curve" smooth="yes"/>
      <point x="466" y="125"/>
      <point x="356" y="81"/>
      <point x="239" y="81" type="curve" smooth="yes"/>
      <point x="219" y="81"/>
      <point x="200" y="83"/>
      <point x="183" y="85" type="curve" smooth="yes"/>
      <point x="150" y="91"/>
      <point x="-82" y="231"/>
      <point x="198" y="174" type="curve" smooth="yes"/>
      <point x="273" y="160"/>
      <point x="286" y="129"/>
      <point x="275" y="30" type="curve" smooth="yes"/>
      <point x="267" y="-37"/>
      <point x="178" y="-27"/>
      <point x="185" y="40" type="curve" smooth="yes"/>
      <point x="188" y="60"/>
      <point x="196" y="83"/>
      <point x="180" y="86" type="curve" smooth="yes"/>
      <point x="150" y="92"/>
      <point x="-83" y="225"/>
      <point x="195" y="175" type="curve" smooth="yes"/>
      <point x="208" y="173"/>
      <point x="223" y="171"/>
      <point x="239" y="171" type="curve" smooth="yes"/>
      <point x="279" y="171"/>
      <point x="376" y="185"/>
      <point x="376" y="216" type="curve" smooth="yes"/>
      <point x="376" y="238"/>
      <point x="277" y="265"/>
      <point x="246" y="274" type="curve" smooth="yes"/>
      <point x="130" y="306"/>
      <point x="56" y="338"/>
      <point x="56" y="414" type="curve" smooth="yes"/>
      <point x="56" y="503"/>
      <point x="160" y="546"/>
      <point x="273" y="546" type="curve" smooth="yes"/>
      <point x="296" y="546"/>
      <point x="318" y="545"/>
      <point x="335" y="541" type="curve" smooth="yes"/>
      <point x="367" y="536"/>
      <point x="600" y="388"/>
      <point x="318" y="453" type="curve" smooth="yes"/>
      <point x="246" y="470"/>
      <point x="226" y="489"/>
      <point x="237" y="595" type="curve" smooth="yes"/>
      <point x="244" y="662"/>
      <point x="334" y="652"/>
    </contour>
  </outline>
</glyph>
<glyph name="slash" format="2">
  <advance width="490"/>
  <unicode hex="002F"/>
  <outline>
    <contour>
      <point x="419" y="573" type="curve" smooth="yes"/>
      <point x="405" y="543"/>
      <point x="391" y="513"/>
      <point x="377" y="482" type="curve" smooth="yes"/>
      <point x="317" y="354"/>
      <point x="253" y="218"/>
      <point x="189" y="79" type="curve" smooth="yes"/>
      <point x="172" y="42"/>
      <point x="155" y="7"/>
      <point x="139" y="-28" type="curve" smooth="yes"/>
      <point x="111" y="-89"/>
      <point x="29" y="-52"/>
      <point x="57" y="10" type="curve" smooth="yes"/>
      <point x="73" y="45"/>
      <point x="90" y="80"/>
      <point x="107" y="117" type="curve" smooth="yes"/>
      <point x="169" y="251"/>
      <point x="233" y="387"/>
      <point x="295" y="520" type="curve" smooth="yes"/>
      <point x="309" y="551"/>
      <point x="323" y="581"/>
      <point x="337" y="611" type="curve" smooth="yes"/>
      <point x="366" y="672"/>
      <point x="447" y="634"/>
    </contour>
  </outline>
</glyph>
<glyph name="five" format="2">
  <advance width="501"/>
  <unicode hex="0035"/>
  <outline>
    <contour>
      <point x="390" y="480" type="curve" smooth="yes"/>
      <point x="352" y="480"/>
      <point x="334" y="480"/>
      <point x="310" y="480" type="curve" smooth="yes"/>
      <point x="269" y="480"/>
      <point x="223" y="480"/>
      <point x="197" y="480" type="curve" smooth="yes"/>
      <point x="194" y="480"/>
      <point x="182" y="485"/>
      <point x="181" y="483" type="curve" smooth="yes"/>
      <point x="177" y="456"/>
      <point x="175" y="448"/>
      <point x="173" y="428" type="curve" smooth="yes"/>
      <point x="169" y="402"/>
      <point x="168" y="390"/>
      <point x="164" y="360" type="curve" smooth="yes"/>
      <point x="163" y="358"/>
      <point x="149" y="379"/>
      <point x="152" y="379" type="curve" smooth="yes"/>
      <point x="186" y="381"/>
      <point x="206" y="382"/>
      <point x="238" y="382" type="curve" smooth="yes"/>
      <point x="375" y="382"/>
      <point x="466" y="325"/>
      <point x="466" y="221" type="curve" smooth="yes"/>
      <point x="466" y="113"/>
      <point x="371" y="56"/>
      <point x="233" y="56" type="curve" smooth="yes"/>
      <point x="186" y="56"/>
      <point x="135" y="63"/>
      <point x="83" y="78" type="curve" smooth="yes"/>
      <point x="18" y="95"/>
      <point x="42" y="182"/>
      <point x="107" y="164" type="curve" smooth="yes"/>
      <point x="151" y="153"/>
      <point x="194" y="146"/>
      <point x="233" y="146" type="curve" smooth="yes"/>
      <point x="306" y="146"/>
      <point x="376" y="163"/>
      <point x="376" y="221" type="curve" smooth="yes"/>
      <point x="376" y="275"/>
      <point x="310" y="292"/>
      <point x="238" y="292" type="curve" smooth="yes"/>
      <point x="208" y="292"/>
      <point x="190" y="291"/>
      <point x="160" y="289" type="curve" smooth="yes"/>
      <point x="94" y="283"/>
      <point x="67" y="314"/>
      <point x="74" y="372" type="curve" smooth="yes"/>
      <point x="78" y="400"/>
      <point x="79" y="414"/>
      <point x="83" y="440" type="curve" smooth="yes"/>
      <point x="87" y="462"/>
      <point x="89" y="472"/>
      <point x="93" y="497" type="curve" smooth="yes"/>
      <point x="100" y="541"/>
      <point x="132" y="570"/>
      <point x="197" y="570" type="curve" smooth="yes"/>
      <point x="236" y="570"/>
      <point x="282" y="570"/>
      <point x="310" y="570" type="curve" smooth="yes"/>
      <point x="345" y="570"/>
      <point x="365" y="570"/>
      <point x="390" y="570" type="curve" smooth="yes"/>
      <point x="458" y="570"/>
      <point x="458" y="480"/>
    </contour>
  </outline>
</glyph>
<glyph name="less" format="2">
  <advance width="447"/>
  <unicode hex="003C"/>
  <outline>
    <contour>
      <point x="375" y="371" type="curve" smooth="yes"/>
      <point x="314" y="345"/>
      <point x="255" y="320"/>
      <point x="178" y="288" type="curve" smooth="yes"/>
      <point x="172" y="285"/>
      <point x="169" y="304"/>
      <point x="176" y="302" type="curve" smooth="yes"/>
      <point x="252" y="270"/>
      <point x="314" y="242"/>
      <point x="375" y="216" type="curve" smooth="yes"/>
      <point x="437" y="190"/>
      <point x="401" y="107"/>
      <point x="339" y="134" type="curve" smooth="yes"/>
      <point x="278" y="160"/>
      <point x="218" y="188"/>
      <point x="142" y="218" type="curve" smooth="yes"/>
      <point x="19" y="267"/>
      <point x="16" y="317"/>
      <point x="144" y="370" type="curve" smooth="yes"/>
      <point x="219" y="402"/>
      <point x="278" y="427"/>
      <point x="339" y="453" type="curve" smooth="yes"/>
      <point x="401" y="480"/>
      <point x="437" y="397"/>
    </contour>
  </outline>
</glyph>
<glyph name="question" format="2">
  <advance width="511"/>
  <unicode hex="003F"/>
  <outline>
    <contour>
      <point x="76" y="551" type="curve" smooth="yes"/>
      <point x="133" y="568"/>
      <point x="190" y="575"/>
      <point x="241" y="575" type="curve" smooth="yes"/>
      <point x="388" y="575"/>
      <point x="472" y="514"/>
      <point x="472" y="436" type="curve" smooth="yes"/>
      <point x="472" y="381"/>
      <point x="428" y="327"/>
      <point x="333" y="300" type="curve" smooth="yes"/>
      <point x="291" y="287"/>
      <point x="271" y="279"/>
      <point x="271" y="264" type="curve" smooth="yes"/>
      <point x="271" y="197"/>
      <point x="181" y="197"/>
      <point x="181" y="264" type="curve" smooth="yes"/>
      <point x="181" y="305"/>
      <point x="191" y="352"/>
      <point x="309" y="386" type="curve" smooth="yes"/>
      <point x="342" y="396"/>
      <point x="382" y="416"/>
      <point x="382" y="436" type="curve" smooth="yes"/>
      <point x="382" y="467"/>
      <point x="299" y="485"/>
      <point x="241" y="485" type="curve" smooth="yes"/>
      <point x="198" y="485"/>
      <point x="149" y="478"/>
      <point x="100" y="465" type="curve" smooth="yes"/>
      <point x="35" y="446"/>
      <point x="11" y="533"/>
    </contour>
    <contour>
      <point x="182" y="101" type="curve" smooth="yes"/>
      <point x="182" y="113"/>
      <point x="182" y="131"/>
      <point x="182" y="139" type="curve" smooth="yes"/>
      <point x="182" y="207"/>
      <point x="272" y="207"/>
      <point x="272" y="139" type="curve" smooth="yes"/>
      <point x="272" y="127"/>
      <point x="272" y="109"/>
      <point x="272" y="101" type="curve" smooth="yes"/>
      <point x="272" y="34"/>
      <point x="182" y="34"/>
    </contour>
  </outline>
</glyph>
<glyph name="at" format="2">
  <advance width="956"/>
  <unicode hex="0040"/>
  <outline>
    <contour>
      <point x="675" y="378" type="curve" smooth="yes"/>
      <point x="675" y="340"/>
      <point x="675" y="294"/>
      <point x="675" y="262" type="curve" smooth="yes"/>
      <point x="675" y="173"/>
      <point x="597" y="103"/>
      <point x="482" y="103" type="curve" smooth="yes"/>
      <point x="366" y="103"/>
      <point x="288" y="175"/>
      <point x="288" y="265" type="curve" smooth="yes"/>
      <point x="288" y="356"/>
      <point x="370" y="426"/>
      <point x="482" y="426" type="curve" smooth="yes"/>
      <point x="596" y="426"/>
      <point x="675" y="358"/>
      <point x="675" y="267" type="curve" smooth="yes"/>
      <point x="675" y="219"/>
      <point x="704" y="203"/>
      <point x="739" y="203" type="curve" smooth="yes"/>
      <point x="791" y="203"/>
      <point x="822" y="237"/>
      <point x="822" y="296" type="curve" smooth="yes"/>
      <point x="822" y="412"/>
      <point x="683" y="486"/>
      <point x="500" y="486" type="curve" smooth="yes"/>
      <point x="307" y="486"/>
      <point x="157" y="394"/>
      <point x="157" y="260" type="curve" smooth="yes"/>
      <point x="157" y="123"/>
      <point x="303" y="44"/>
      <point x="488" y="44" type="curve" smooth="yes"/>
      <point x="543" y="44"/>
      <point x="602" y="51"/>
      <point x="663" y="66" type="curve" smooth="yes"/>
      <point x="729" y="82"/>
      <point x="750" y="-6"/>
      <point x="685" y="-22" type="curve" smooth="yes"/>
      <point x="616" y="-39"/>
      <point x="549" y="-46"/>
      <point x="488" y="-46" type="curve" smooth="yes"/>
      <point x="240" y="-46"/>
      <point x="67" y="77"/>
      <point x="67" y="260" type="curve" smooth="yes"/>
      <point x="67" y="438"/>
      <point x="244" y="576"/>
      <point x="500" y="576" type="curve" smooth="yes"/>
      <point x="752" y="576"/>
      <point x="912" y="455"/>
      <point x="912" y="296" type="curve" smooth="yes"/>
      <point x="912" y="183"/>
      <point x="838" y="113"/>
      <point x="739" y="113" type="curve" smooth="yes"/>
      <point x="662" y="113"/>
      <point x="585" y="161"/>
      <point x="585" y="267" type="curve" smooth="yes"/>
      <point x="585" y="311"/>
      <point x="537" y="336"/>
      <point x="482" y="336" type="curve" smooth="yes"/>
      <point x="427" y="336"/>
      <point x="378" y="309"/>
      <point x="378" y="265" type="curve" smooth="yes"/>
      <point x="378" y="220"/>
      <point x="425" y="193"/>
      <point x="482" y="193" type="curve" smooth="yes"/>
      <point x="538" y="193"/>
      <point x="585" y="218"/>
      <point x="585" y="262" type="curve" smooth="yes"/>
      <point x="585" y="310"/>
      <point x="585" y="353"/>
      <point x="585" y="378" type="curve" smooth="yes"/>
      <point x="585" y="446"/>
      <point x="675" y="446"/>
    </contour>
  </outline>
</glyph>
<glyph name="A" format="2">
  <advance width="651"/>
  <unicode hex="0041"/>
  <outline>
    <contour>
      <point x="44" y="124" type="curve" smooth="yes"/>
      <point x="61" y="158"/>
      <point x="71" y="179"/>
      <point x="83" y="202" type="curve" smooth="yes"/>
      <point x="107" y="247"/>
      <point x="141" y="275"/>
      <point x="216" y="275" type="curve" smooth="yes"/>
      <point x="272" y="275"/>
      <point x="299" y="275"/>
      <point x="342" y="275" type="curve" smooth="yes"/>
      <point x="363" y="275"/>
      <point x="588" y="185"/>
      <point x="342" y="185" type="curve" smooth="yes"/>
      <point x="297" y="185"/>
      <point x="283" y="185"/>
      <point x="266" y="185" type="curve" smooth="yes"/>
      <point x="145" y="185"/>
      <point x="113" y="266"/>
      <point x="153" y="347" type="curve" smooth="yes"/>
      <point x="178" y="398"/>
      <point x="206" y="453"/>
      <point x="230" y="503" type="curve" smooth="yes"/>
      <point x="277" y="601"/>
      <point x="373" y="602"/>
      <point x="418" y="505" type="curve" smooth="yes"/>
      <point x="458" y="418"/>
      <point x="523" y="286"/>
      <point x="563" y="207" type="curve" smooth="yes"/>
      <point x="574" y="187"/>
      <point x="591" y="152"/>
      <point x="605" y="124" type="curve" smooth="yes"/>
      <point x="635" y="64"/>
      <point x="555" y="24"/>
      <point x="525" y="84" type="curve" smooth="yes"/>
      <point x="511" y="112"/>
      <point x="494" y="145"/>
      <point x="483" y="167" type="curve" smooth="yes"/>
      <point x="443" y="246"/>
      <point x="376" y="380"/>
      <point x="336" y="467" type="curve" smooth="yes"/>
      <point x="326" y="490"/>
      <point x="323" y="488"/>
      <point x="312" y="465" type="curve" smooth="yes"/>
      <point x="288" y="413"/>
      <point x="258" y="358"/>
      <point x="233" y="307" type="curve" smooth="yes"/>
      <point x="220" y="280"/>
      <point x="226" y="275"/>
      <point x="266" y="275" type="curve" smooth="yes"/>
      <point x="292" y="275"/>
      <point x="312" y="275"/>
      <point x="342" y="275" type="curve" smooth="yes"/>
      <point x="363" y="275"/>
      <point x="588" y="185"/>
      <point x="342" y="185" type="curve" smooth="yes"/>
      <point x="279" y="185"/>
      <point x="254" y="185"/>
      <point x="216" y="185" type="curve" smooth="yes"/>
      <point x="182" y="185"/>
      <point x="173" y="181"/>
      <point x="163" y="162" type="curve" smooth="yes"/>
      <point x="146" y="128"/>
      <point x="136" y="107"/>
      <point x="124" y="84" type="curve" smooth="yes"/>
      <point x="94" y="24"/>
      <point x="14" y="64"/>
    </contour>
  </outline>
</glyph>
<glyph name="B" format="2">
  <advance width="540"/>
  <unicode hex="0042"/>
  <outline>
    <contour>
      <point x="235" y="150" type="curve" smooth="yes"/>
      <point x="290" y="150"/>
      <point x="329" y="147"/>
      <point x="369" y="161" type="curve" smooth="yes"/>
      <point x="396" y="171"/>
      <point x="419" y="189"/>
      <point x="419" y="213" type="curve" smooth="yes"/>
      <point x="419" y="242"/>
      <point x="387" y="260"/>
      <point x="349" y="268" type="curve" smooth="yes"/>
      <point x="340" y="270"/>
      <point x="231" y="235"/>
      <point x="247" y="327" type="curve" smooth="yes"/>
      <point x="253" y="361"/>
      <point x="115" y="364"/>
      <point x="285" y="364" type="curve" smooth="yes"/>
      <point x="311" y="364"/>
      <point x="320" y="366"/>
      <point x="341" y="374" type="curve" smooth="yes"/>
      <point x="364" y="382"/>
      <point x="391" y="392"/>
      <point x="391" y="418" type="curve" smooth="yes"/>
      <point x="391" y="459"/>
      <point x="336" y="477"/>
      <point x="273" y="477" type="curve" smooth="yes"/>
      <point x="246" y="477"/>
      <point x="224" y="477"/>
      <point x="206" y="477" type="curve" smooth="yes"/>
      <point x="180" y="477"/>
      <point x="170" y="480"/>
      <point x="170" y="462" type="curve" smooth="yes"/>
      <point x="170" y="361"/>
      <point x="170" y="277"/>
      <point x="170" y="209" type="curve" smooth="yes"/>
      <point x="170" y="166"/>
      <point x="170" y="134"/>
      <point x="170" y="105" type="curve" smooth="yes"/>
      <point x="170" y="37"/>
      <point x="80" y="38"/>
      <point x="80" y="105" type="curve" smooth="yes"/>
      <point x="80" y="148"/>
      <point x="80" y="180"/>
      <point x="80" y="209" type="curve" smooth="yes"/>
      <point x="80" y="310"/>
      <point x="80" y="394"/>
      <point x="80" y="462" type="curve" smooth="yes"/>
      <point x="80" y="529"/>
      <point x="109" y="567"/>
      <point x="206" y="567" type="curve" smooth="yes"/>
      <point x="233" y="567"/>
      <point x="255" y="567"/>
      <point x="273" y="567" type="curve" smooth="yes"/>
      <point x="405" y="567"/>
      <point x="481" y="505"/>
      <point x="481" y="418" type="curve" smooth="yes"/>
      <point x="481" y="348"/>
      <point x="434" y="311"/>
      <point x="371" y="288" type="curve" smooth="yes"/>
      <point x="340" y="278"/>
      <point x="322" y="274"/>
      <point x="285" y="274" type="curve" smooth="yes"/>
      <point x="262" y="274"/>
      <point x="381" y="560"/>
      <point x="335" y="311" type="curve" smooth="yes"/>
      <point x="335" y="309"/>
      <point x="106" y="419"/>
      <point x="367" y="356" type="curve" smooth="yes"/>
      <point x="459" y="337"/>
      <point x="509" y="281"/>
      <point x="509" y="213" type="curve" smooth="yes"/>
      <point x="509" y="154"/>
      <point x="469" y="102"/>
      <point x="399" y="77" type="curve" smooth="yes"/>
      <point x="346" y="57"/>
      <point x="309" y="60"/>
      <point x="235" y="60" type="curve" smooth="yes"/>
      <point x="168" y="60"/>
      <point x="168" y="150"/>
    </contour>
  </outline>
</glyph>
<glyph name="C" format="2">
  <advance width="600"/>
  <unicode hex="0043"/>
  <outline>
    <contour>
      <point x="534" y="94" type="curve" smooth="yes"/>
      <point x="479" y="68"/>
      <point x="411" y="57"/>
      <point x="352" y="57" type="curve" smooth="yes"/>
      <point x="178" y="56"/>
      <point x="45" y="159"/>
      <point x="45" y="316" type="curve" smooth="yes"/>
      <point x="45" y="473"/>
      <point x="182" y="576"/>
      <point x="356" y="575" type="curve"/>
      <point x="356" y="575" type="line"/>
      <point x="413" y="575"/>
      <point x="478" y="565"/>
      <point x="533" y="540" type="curve" smooth="yes"/>
      <point x="595" y="512"/>
      <point x="558" y="430"/>
      <point x="497" y="458" type="curve" smooth="yes"/>
      <point x="454" y="477"/>
      <point x="401" y="485"/>
      <point x="356" y="485" type="curve" smooth="yes"/>
      <point x="356" y="485"/>
      <point x="356" y="485"/>
      <point x="356" y="485" type="curve" smooth="yes"/>
      <point x="236" y="486"/>
      <point x="135" y="424"/>
      <point x="135" y="316" type="curve" smooth="yes"/>
      <point x="135" y="208"/>
      <point x="232" y="146"/>
      <point x="352" y="147" type="curve" smooth="yes"/>
      <point x="397" y="147"/>
      <point x="453" y="156"/>
      <point x="496" y="176" type="curve" smooth="yes"/>
      <point x="557" y="204"/>
      <point x="595" y="123"/>
    </contour>
  </outline>
</glyph>
<glyph name="F" format="2">
  <advance width="503"/>
  <unicode hex="0046"/>
  <outline>
    <contour>
      <point x="401" y="264" type="curve" smooth="yes"/>
      <point x="334" y="264"/>
      <point x="254" y="264"/>
      <point x="202" y="264" type="curve" smooth="yes"/>
      <point x="172" y="264"/>
      <point x="170" y="260"/>
      <point x="170" y="233" type="curve" smooth="yes"/>
      <point x="170" y="198"/>
      <point x="170" y="188"/>
      <point x="170" y="154" type="curve" smooth="yes"/>
      <point x="170" y="135"/>
      <point x="80" y="-84"/>
      <point x="80" y="158" type="curve" smooth="yes"/>
      <point x="80" y="304"/>
      <point x="80" y="413"/>
      <point x="80" y="465" type="curve" smooth="yes"/>
      <point x="80" y="528"/>
      <point x="108" y="570"/>
      <point x="210" y="570" type="curve" smooth="yes"/>
      <point x="262" y="570"/>
      <point x="365" y="570"/>
      <point x="423" y="570" type="curve" smooth="yes"/>
      <point x="491" y="570"/>
      <point x="491" y="480"/>
      <point x="423" y="480" type="curve" smooth="yes"/>
      <point x="336" y="480"/>
      <point x="245" y="480"/>
      <point x="210" y="480" type="curve" smooth="yes"/>
      <point x="181" y="480"/>
      <point x="170" y="483"/>
      <point x="170" y="465" type="curve" smooth="yes"/>
      <point x="170" y="388"/>
      <point x="170" y="256"/>
      <point x="170" y="158" type="curve" smooth="yes"/>
      <point x="170" y="138"/>
      <point x="80" y="-84"/>
      <point x="80" y="154" type="curve" smooth="yes"/>
      <point x="80" y="205"/>
      <point x="80" y="209"/>
      <point x="80" y="233" type="curve" smooth="yes"/>
      <point x="80" y="309"/>
      <point x="119" y="354"/>
      <point x="202" y="354" type="curve" smooth="yes"/>
      <point x="280" y="354"/>
      <point x="356" y="354"/>
      <point x="401" y="354" type="curve" smooth="yes"/>
      <point x="469" y="354"/>
      <point x="469" y="264"/>
    </contour>
  </outline>
</glyph>
<glyph name="I" format="2">
  <advance width="270"/>
  <unicode hex="0049"/>
  <outline>
    <contour>
      <point x="90" y="104" type="curve" smooth="yes"/>
      <point x="90" y="141"/>
      <point x="90" y="172"/>
      <point x="90" y="197" type="curve" smooth="yes"/>
      <point x="90" y="297"/>
      <point x="90" y="367"/>
      <point x="90" y="434" type="curve" smooth="yes"/>
      <point x="90" y="469"/>
      <point x="90" y="504"/>
      <point x="90" y="528" type="curve" smooth="yes"/>
      <point x="90" y="596"/>
      <point x="180" y="596"/>
      <point x="180" y="528" type="curve" smooth="yes"/>
      <point x="180" y="493"/>
      <point x="180" y="458"/>
      <point x="180" y="434" type="curve" smooth="yes"/>
      <point x="180" y="334"/>
      <point x="180" y="264"/>
      <point x="180" y="197" type="curve" smooth="yes"/>
      <point x="180" y="159"/>
      <point x="180" y="129"/>
      <point x="180" y="104" type="curve" smooth="yes"/>
      <point x="180" y="37"/>
      <point x="90" y="37"/>
    </contour>
  </outline>
</glyph>
<glyph name="M" format="2">
  <advance width="808"/>
  <unicode hex="004D"/>
  <outline>
    <contour>
      <point x="638" y="104" type="curve" smooth="yes"/>
      <point x="638" y="138"/>
      <point x="638" y="164"/>
      <point x="638" y="187" type="curve" smooth="yes"/>
      <point x="638" y="241"/>
      <point x="638" y="284"/>
      <point x="638" y="322" type="curve" smooth="yes"/>
      <point x="638" y="368"/>
      <point x="638" y="401"/>
      <point x="638" y="449" type="curve" smooth="yes"/>
      <point x="638" y="457"/>
      <point x="632" y="436"/>
      <point x="628" y="428" type="curve" smooth="yes"/>
      <point x="606" y="388"/>
      <point x="583" y="344"/>
      <point x="561" y="302" type="curve" smooth="yes"/>
      <point x="536" y="254"/>
      <point x="511" y="206"/>
      <point x="489" y="161" type="curve" smooth="yes"/>
      <point x="429" y="39"/>
      <point x="381" y="38"/>
      <point x="319" y="161" type="curve" smooth="yes"/>
      <point x="296" y="206"/>
      <point x="272" y="253"/>
      <point x="247" y="301" type="curve" smooth="yes"/>
      <point x="225" y="343"/>
      <point x="203" y="385"/>
      <point x="180" y="427" type="curve" smooth="yes"/>
      <point x="176" y="435"/>
      <point x="170" y="456"/>
      <point x="170" y="448" type="curve" smooth="yes"/>
      <point x="170" y="398"/>
      <point x="170" y="356"/>
      <point x="170" y="322" type="curve" smooth="yes"/>
      <point x="170" y="265"/>
      <point x="170" y="221"/>
      <point x="170" y="183" type="curve" smooth="yes"/>
      <point x="170" y="151"/>
      <point x="170" y="125"/>
      <point x="170" y="104" type="curve" smooth="yes"/>
      <point x="170" y="36"/>
      <point x="80" y="37"/>
      <point x="80" y="104" type="curve" smooth="yes"/>
      <point x="80" y="136"/>
      <point x="80" y="162"/>
      <point x="80" y="183" type="curve" smooth="yes"/>
      <point x="80" y="239"/>
      <point x="80" y="284"/>
      <point x="80" y="322" type="curve" smooth="yes"/>
      <point x="80" y="373"/>
      <point x="80" y="414"/>
      <point x="80" y="448" type="curve" smooth="yes"/>
      <point x="80" y="604"/>
      <point x="174" y="630"/>
      <point x="260" y="469" type="curve" smooth="yes"/>
      <point x="282" y="428"/>
      <point x="304" y="386"/>
      <point x="327" y="343" type="curve" smooth="yes"/>
      <point x="352" y="295"/>
      <point x="376" y="246"/>
      <point x="399" y="201" type="curve" smooth="yes"/>
      <point x="405" y="190"/>
      <point x="403" y="189"/>
      <point x="409" y="201" type="curve" smooth="yes"/>
      <point x="431" y="246"/>
      <point x="456" y="294"/>
      <point x="481" y="342" type="curve" smooth="yes"/>
      <point x="503" y="386"/>
      <point x="526" y="430"/>
      <point x="548" y="470" type="curve" smooth="yes"/>
      <point x="634" y="632"/>
      <point x="728" y="606"/>
      <point x="728" y="449" type="curve" smooth="yes"/>
      <point x="728" y="377"/>
      <point x="728" y="353"/>
      <point x="728" y="322" type="curve" smooth="yes"/>
      <point x="728" y="266"/>
      <point x="728" y="223"/>
      <point x="728" y="187" type="curve" smooth="yes"/>
      <point x="728" y="153"/>
      <point x="728" y="127"/>
      <point x="728" y="104" type="curve" smooth="yes"/>
      <point x="728" y="37"/>
      <point x="638" y="37"/>
    </contour>
  </outline>
</glyph>
<glyph name="Y" format="2">
  <advance width="582"/>
  <unicode hex="0059"/>
  <outline>
    <contour>
      <point x="538" y="500" type="curve" smooth="yes"/>
      <point x="516" y="473"/>
      <point x="496" y="447"/>
      <point x="476" y="420" type="curve" smooth="yes"/>
      <point x="436" y="368"/>
      <point x="407" y="333"/>
      <point x="368" y="281" type="curve" smooth="yes"/>
      <point x="352" y="260"/>
      <point x="336" y="236"/>
      <point x="336" y="209" type="curve" smooth="yes"/>
      <point x="336" y="190"/>
      <point x="336" y="177"/>
      <point x="336" y="154" type="curve" smooth="yes"/>
      <point x="336" y="136"/>
      <point x="246" y="-81"/>
      <point x="246" y="157" type="curve" smooth="yes"/>
      <point x="246" y="185"/>
      <point x="246" y="196"/>
      <point x="246" y="209" type="curve" smooth="yes"/>
      <point x="246" y="272"/>
      <point x="213" y="284"/>
      <point x="168" y="340" type="curve" smooth="yes"/>
      <point x="125" y="393"/>
      <point x="100" y="428"/>
      <point x="44" y="501" type="curve" smooth="yes"/>
      <point x="3" y="554"/>
      <point x="75" y="609"/>
      <point x="116" y="555" type="curve" smooth="yes"/>
      <point x="170" y="484"/>
      <point x="195" y="449"/>
      <point x="238" y="396" type="curve" smooth="yes"/>
      <point x="307" y="312"/>
      <point x="336" y="305"/>
      <point x="336" y="209" type="curve" smooth="yes"/>
      <point x="336" y="190"/>
      <point x="336" y="176"/>
      <point x="336" y="157" type="curve" smooth="yes"/>
      <point x="336" y="138"/>
      <point x="246" y="-81"/>
      <point x="246" y="154" type="curve" smooth="yes"/>
      <point x="246" y="188"/>
      <point x="246" y="196"/>
      <point x="246" y="209" type="curve" smooth="yes"/>
      <point x="246" y="259"/>
      <point x="268" y="298"/>
      <point x="296" y="335" type="curve" smooth="yes"/>
      <point x="335" y="387"/>
      <point x="365" y="424"/>
      <point x="404" y="476" type="curve" smooth="yes"/>
      <point x="426" y="503"/>
      <point x="446" y="529"/>
      <point x="466" y="556" type="curve" smooth="yes"/>
      <point x="508" y="609"/>
      <point x="579" y="554"/>
    </contour>
  </outline>
</glyph>
<glyph name="grave" format="2">
  <advance width="408"/>
  <unicode hex="0060"/>
  <outline>
    <contour>
      <point x="217" y="468" type="curve" smooth="yes"/>
      <point x="187" y="494"/>
      <point x="156" y="519"/>
      <point x="126" y="543" type="curve" smooth="yes"/>
      <point x="74" y="587"/>
      <point x="132" y="656"/>
      <point x="184" y="613" type="curve" smooth="yes"/>
      <point x="214" y="587"/>
      <point x="245" y="562"/>
      <point x="275" y="538" type="curve" smooth="yes"/>
      <point x="327" y="494"/>
      <point x="269" y="425"/>
    </contour>
  </outline>
</glyph>
<glyph name="b" format="2">
  <advance width="584"/>
  <unicode hex="0062"/>
  <outline>
    <contour>
      <point x="66" y="104" type="curve" smooth="yes"/>
      <point x="66" y="152"/>
      <point x="66" y="178"/>
      <point x="66" y="250" type="curve" smooth="yes"/>
      <point x="66" y="360"/>
      <point x="162" y="446"/>
      <point x="305" y="446" type="curve" smooth="yes"/>
      <point x="447" y="446"/>
      <point x="546" y="359"/>
      <point x="546" y="249" type="curve" smooth="yes"/>
      <point x="546" y="137"/>
      <point x="443" y="52"/>
      <point x="306" y="52" type="curve" smooth="yes"/>
      <point x="159" y="52"/>
      <point x="78" y="142"/>
      <point x="71" y="211" type="curve" smooth="yes"/>
      <point x="57" y="359"/>
      <point x="66" y="393"/>
      <point x="66" y="502" type="curve" smooth="yes"/>
      <point x="66" y="525"/>
      <point x="66" y="547"/>
      <point x="66" y="565" type="curve" smooth="yes"/>
      <point x="66" y="633"/>
      <point x="156" y="633"/>
      <point x="156" y="565" type="curve" smooth="yes"/>
      <point x="156" y="538"/>
      <point x="156" y="518"/>
      <point x="156" y="502" type="curve" smooth="yes"/>
      <point x="156" y="399"/>
      <point x="147" y="361"/>
      <point x="161" y="219" type="curve" smooth="yes"/>
      <point x="164" y="183"/>
      <point x="229" y="142"/>
      <point x="306" y="142" type="curve" smooth="yes"/>
      <point x="386" y="142"/>
      <point x="456" y="184"/>
      <point x="456" y="249" type="curve" smooth="yes"/>
      <point x="456" y="314"/>
      <point x="388" y="356"/>
      <point x="305" y="356" type="curve" smooth="yes"/>
      <point x="221" y="356"/>
      <point x="156" y="315"/>
      <point x="156" y="250" type="curve" smooth="yes"/>
      <point x="156" y="143"/>
      <point x="156" y="136"/>
      <point x="156" y="104" type="curve" smooth="yes"/>
      <point x="156" y="37"/>
      <point x="66" y="37"/>
    </contour>
  </outline>
</glyph>
<glyph name="e" format="2">
  <advance width="548"/>
  <unicode hex="0065"/>
  <outline>
    <contour>
      <point x="160" y="297" type="curve" smooth="yes"/>
      <point x="243" y="297"/>
      <point x="305" y="297"/>
      <point x="367" y="297" type="curve" smooth="yes"/>
      <point x="373" y="297"/>
      <point x="413" y="288"/>
      <point x="413" y="291" type="curve" smooth="yes"/>
      <point x="401" y="335"/>
      <point x="345" y="358"/>
      <point x="282" y="358" type="curve" smooth="yes"/>
      <point x="197" y="358"/>
      <point x="129" y="318"/>
      <point x="129" y="251" type="curve" smooth="yes"/>
      <point x="129" y="180"/>
      <point x="204" y="145"/>
      <point x="291" y="145" type="curve" smooth="yes"/>
      <point x="336" y="145"/>
      <point x="385" y="154"/>
      <point x="434" y="174" type="curve" smooth="yes"/>
      <point x="497" y="199"/>
      <point x="530" y="115"/>
      <point x="468" y="90" type="curve" smooth="yes"/>
      <point x="407" y="66"/>
      <point x="346" y="55"/>
      <point x="291" y="55" type="curve" smooth="yes"/>
      <point x="145" y="55"/>
      <point x="39" y="133"/>
      <point x="39" y="251" type="curve" smooth="yes"/>
      <point x="39" y="365"/>
      <point x="139" y="448"/>
      <point x="282" y="448" type="curve" smooth="yes"/>
      <point x="396" y="448"/>
      <point x="478" y="394"/>
      <point x="499" y="315" type="curve" smooth="yes"/>
      <point x="517" y="251"/>
      <point x="490" y="207"/>
      <point x="367" y="207" type="curve" smooth="yes"/>
      <point x="274" y="207"/>
      <point x="216" y="207"/>
      <point x="160" y="207" type="curve" smooth="yes"/>
      <point x="93" y="207"/>
      <point x="93" y="297"/>
    </contour>
  </outline>
</glyph>
<glyph name="h" format="2">
  <advance width="568"/>
  <unicode hex="0068"/>
  <outline>
    <contour>
      <point x="421" y="102" type="curve" smooth="yes"/>
      <point x="421" y="140"/>
      <point x="421" y="171"/>
      <point x="421" y="197" type="curve" smooth="yes"/>
      <point x="421" y="231"/>
      <point x="421" y="259"/>
      <point x="421" y="280" type="curve" smooth="yes"/>
      <point x="421" y="334"/>
      <point x="374" y="356"/>
      <point x="311" y="356" type="curve" smooth="yes"/>
      <point x="225" y="356"/>
      <point x="156" y="324"/>
      <point x="156" y="256" type="curve" smooth="yes"/>
      <point x="156" y="207"/>
      <point x="156" y="193"/>
      <point x="156" y="165" type="curve" smooth="yes"/>
      <point x="156" y="140"/>
      <point x="66" y="-96"/>
      <point x="66" y="165" type="curve" smooth="yes"/>
      <point x="66" y="225"/>
      <point x="66" y="442"/>
      <point x="66" y="457" type="curve" smooth="yes"/>
      <point x="66" y="514"/>
      <point x="66" y="540"/>
      <point x="66" y="563" type="curve" smooth="yes"/>
      <point x="66" y="631"/>
      <point x="156" y="631"/>
      <point x="156" y="563" type="curve" smooth="yes"/>
      <point x="156" y="529"/>
      <point x="156" y="495"/>
      <point x="156" y="457" type="curve" smooth="yes"/>
      <point x="156" y="435"/>
      <point x="156" y="205"/>
      <point x="156" y="165" type="curve" smooth="yes"/>
      <point x="156" y="140"/>
      <point x="66" y="-96"/>
      <point x="66" y="165" type="curve" smooth="yes"/>
      <point x="66" y="206"/>
      <point x="66" y="223"/>
      <point x="66" y="256" type="curve" smooth="yes"/>
      <point x="66" y="371"/>
      <point x="166" y="446"/>
      <point x="311" y="446" type="curve" smooth="yes"/>
      <point x="431" y="446"/>
      <point x="511" y="383"/>
      <point x="511" y="280" type="curve" smooth="yes"/>
      <point x="511" y="248"/>
      <point x="511" y="220"/>
      <point x="511" y="197" type="curve" smooth="yes"/>
      <point x="511" y="158"/>
      <point x="511" y="127"/>
      <point x="511" y="102" type="curve" smooth="yes"/>
      <point x="511" y="35"/>
      <point x="421" y="35"/>
    </contour>
  </outline>
</glyph>
<glyph name="i" format="2">
  <advance width="231"/>
  <unicode hex="0069"/>
  <outline>
    <contour>
      <point x="70" y="104" type="curve" smooth="yes"/>
      <point x="70" y="141"/>
      <point x="70" y="168"/>
      <point x="70" y="192" type="curve" smooth="yes"/>
      <point x="70" y="241"/>
      <point x="70" y="279"/>
      <point x="70" y="311" type="curve" smooth="yes"/>
      <point x="70" y="348"/>
      <point x="70" y="375"/>
      <point x="70" y="400" type="curve" smooth="yes"/>
      <point x="70" y="468"/>
      <point x="160" y="468"/>
      <point x="160" y="400" type="curve" smooth="yes"/>
      <point x="160" y="363"/>
      <point x="160" y="336"/>
      <point x="160" y="311" type="curve" smooth="yes"/>
      <point x="160" y="263"/>
      <point x="160" y="225"/>
      <point x="160" y="192" type="curve" smooth="yes"/>
      <point x="160" y="157"/>
      <point x="160" y="129"/>
      <point x="160" y="104" type="curve" smooth="yes"/>
      <point x="160" y="37"/>
      <point x="70" y="37"/>
    </contour>
    <contour>
      <point x="70" y="528" type="curve" smooth="yes"/>
      <point x="70" y="539"/>
      <point x="70" y="550"/>
      <point x="70" y="558" type="curve" smooth="yes"/>
      <point x="70" y="626"/>
      <point x="160" y="626"/>
      <point x="160" y="558" type="curve" smooth="yes"/>
      <point x="160" y="546"/>
      <point x="160" y="535"/>
      <point x="160" y="528" type="curve" smooth="yes"/>
      <point x="160" y="461"/>
      <point x="70" y="461"/>
    </contour>
  </outline>
</glyph>
<glyph name="k" format="2">
  <advance width="501"/>
  <unicode hex="006B"/>
  <outline>
    <contour>
      <point x="160" y="567" type="curve" smooth="yes"/>
      <point x="160" y="529"/>
      <point x="160" y="498"/>
      <point x="160" y="473" type="curve" smooth="yes"/>
      <point x="160" y="362"/>
      <point x="160" y="272"/>
      <point x="160" y="197" type="curve" smooth="yes"/>
      <point x="160" y="159"/>
      <point x="160" y="129"/>
      <point x="160" y="104" type="curve" smooth="yes"/>
      <point x="160" y="36"/>
      <point x="70" y="37"/>
      <point x="70" y="104" type="curve" smooth="yes"/>
      <point x="70" y="142"/>
      <point x="70" y="172"/>
      <point x="70" y="197" type="curve" smooth="yes"/>
      <point x="70" y="309"/>
      <point x="70" y="399"/>
      <point x="70" y="473" type="curve" smooth="yes"/>
      <point x="70" y="511"/>
      <point x="70" y="542"/>
      <point x="70" y="567" type="curve" smooth="yes"/>
      <point x="70" y="635"/>
      <point x="160" y="635"/>
    </contour>
    <contour>
      <point x="436" y="361" type="curve" smooth="yes"/>
      <point x="382" y="331"/>
      <point x="322" y="302"/>
      <point x="262" y="270" type="curve" smooth="yes"/>
      <point x="247" y="262"/>
      <point x="247" y="265"/>
      <point x="261" y="257" type="curve" smooth="yes"/>
      <point x="324" y="222"/>
      <point x="391" y="179"/>
      <point x="449" y="142" type="curve" smooth="yes"/>
      <point x="505" y="105"/>
      <point x="456" y="30"/>
      <point x="399" y="66" type="curve" smooth="yes"/>
      <point x="343" y="103"/>
      <point x="278" y="144"/>
      <point x="217" y="179" type="curve" smooth="yes"/>
      <point x="99" y="244"/>
      <point x="98" y="287"/>
      <point x="220" y="350" type="curve" smooth="yes"/>
      <point x="280" y="382"/>
      <point x="340" y="411"/>
      <point x="392" y="439" type="curve" smooth="yes"/>
      <point x="452" y="472"/>
      <point x="495" y="393"/>
    </contour>
  </outline>
</glyph>
<glyph name="n" format="2">
  <advance width="568"/>
  <unicode hex="006E"/>
  <outline>
    <contour>
      <point x="421" y="102" type="curve" smooth="yes"/>
      <point x="421" y="140"/>
      <point x="421" y="171"/>
      <point x="421" y="197" type="curve" smooth="yes"/>
      <point x="421" y="231"/>
      <point x="421" y="259"/>
      <point x="421" y="280" type="curve" smooth="yes"/>
      <point x="421" y="334"/>
      <point x="374" y="356"/>
      <point x="311" y="356" type="curve" smooth="yes"/>
      <point x="225" y="356"/>
      <point x="156" y="324"/>
      <point x="156" y="256" type="curve" smooth="yes"/>
      <point x="156" y="207"/>
      <point x="156" y="193"/>
      <point x="156" y="165" type="curve" smooth="yes"/>
      <point x="156" y="140"/>
      <point x="66" y="-96"/>
      <point x="66" y="165" type="curve" smooth="yes"/>
      <point x="66" y="225"/>
      <point x="66" y="297"/>
      <point x="66" y="312" type="curve" smooth="yes"/>
      <point x="66" y="347"/>
      <point x="66" y="374"/>
      <point x="66" y="397" type="curve" smooth="yes"/>
      <point x="66" y="465"/>
      <point x="156" y="465"/>
      <point x="156" y="397" type="curve" smooth="yes"/>
      <point x="156" y="363"/>
      <point x="156" y="336"/>
      <point x="156" y="312" type="curve" smooth="yes"/>
      <point x="156" y="290"/>
      <point x="156" y="205"/>
      <point x="156" y="165" type="curve" smooth="yes"/>
      <point x="156" y="140"/>
      <point x="66" y="-96"/>
      <point x="66" y="165" type="curve" smooth="yes"/>
      <point x="66" y="206"/>
      <point x="66" y="223"/>
      <point x="66" y="256" type="curve" smooth="yes"/>
      <point x="66" y="371"/>
      <point x="166" y="446"/>
      <point x="311" y="446" type="curve" smooth="yes"/>
      <point x="431" y="446"/>
      <point x="511" y="383"/>
      <point x="511" y="280" type="curve" smooth="yes"/>
      <point x="511" y="248"/>
      <point x="511" y="220"/>
      <point x="511" y="197" type="curve" smooth="yes"/>
      <point x="511" y="158"/>
      <point x="511" y="127"/>
      <point x="511" y="102" type="curve" smooth="yes"/>
      <point x="511" y="35"/>
      <point x="421" y="35"/>
    </contour>
  </outline>
</glyph>
<glyph name="o" format="2">
  <advance width="577"/>
  <unicode hex="006F"/>
  <outline>
    <contour>
      <point x="218" y="59" type="curve" smooth="yes"/>
      <point x="161" y="72"/>
      <point x="121" y="93"/>
      <point x="89" y="127" type="curve" smooth="yes"/>
      <point x="57" y="161"/>
      <point x="39" y="203"/>
      <point x="39" y="249" type="curve" smooth="yes"/>
      <point x="39" y="359"/>
      <point x="140" y="446"/>
      <point x="288" y="446" type="curve" smooth="yes"/>
      <point x="437" y="446"/>
      <point x="538" y="359"/>
      <point x="538" y="249" type="curve" smooth="yes"/>
      <point x="538" y="203"/>
      <point x="521" y="161"/>
      <point x="488" y="128" type="curve" smooth="yes"/>
      <point x="456" y="93"/>
      <point x="419" y="74"/>
      <point x="359" y="59" type="curve" smooth="yes"/>
      <point x="293" y="43"/>
      <point x="272" y="131"/>
      <point x="337" y="147" type="curve" smooth="yes"/>
      <point x="377" y="156"/>
      <point x="402" y="167"/>
      <point x="424" y="190" type="curve" smooth="yes"/>
      <point x="439" y="207"/>
      <point x="448" y="227"/>
      <point x="448" y="249" type="curve" smooth="yes"/>
      <point x="448" y="314"/>
      <point x="376" y="356"/>
      <point x="288" y="356" type="curve" smooth="yes"/>
      <point x="201" y="356"/>
      <point x="129" y="314"/>
      <point x="129" y="249" type="curve" smooth="yes"/>
      <point x="129" y="226"/>
      <point x="139" y="205"/>
      <point x="153" y="189" type="curve" smooth="yes"/>
      <point x="175" y="167"/>
      <point x="201" y="155"/>
      <point x="238" y="147" type="curve" smooth="yes"/>
      <point x="304" y="131"/>
      <point x="283" y="44"/>
    </contour>
  </outline>
</glyph>
<glyph name="x" format="2">
  <advance width="499"/>
  <unicode hex="0078"/>
  <outline>
    <contour>
      <point x="121" y="433" type="curve" smooth="yes"/>
      <point x="144" y="412"/>
      <point x="169" y="389"/>
      <point x="190" y="370" type="curve" smooth="yes"/>
      <point x="224" y="339"/>
      <point x="310" y="262"/>
      <point x="386" y="192" type="curve" smooth="yes"/>
      <point x="407" y="173"/>
      <point x="427" y="154"/>
      <point x="446" y="138" type="curve" smooth="yes"/>
      <point x="496" y="93"/>
      <point x="436" y="25"/>
      <point x="386" y="70" type="curve" smooth="yes"/>
      <point x="367" y="88"/>
      <point x="347" y="107"/>
      <point x="326" y="126" type="curve" smooth="yes"/>
      <point x="247" y="198"/>
      <point x="163" y="274"/>
      <point x="130" y="304" type="curve" smooth="yes"/>
      <point x="109" y="323"/>
      <point x="84" y="346"/>
      <point x="61" y="367" type="curve" smooth="yes"/>
      <point x="11" y="412"/>
      <point x="71" y="479"/>
    </contour>
    <contour>
      <point x="441" y="367" type="curve" smooth="yes"/>
      <point x="419" y="346"/>
      <point x="395" y="325"/>
      <point x="374" y="306" type="curve" smooth="yes"/>
      <point x="305" y="244"/>
      <point x="236" y="180"/>
      <point x="185" y="135" type="curve" smooth="yes"/>
      <point x="161" y="114"/>
      <point x="136" y="93"/>
      <point x="112" y="71" type="curve" smooth="yes"/>
      <point x="63" y="25"/>
      <point x="2" y="92"/>
      <point x="52" y="137" type="curve" smooth="yes"/>
      <point x="76" y="159"/>
      <point x="101" y="182"/>
      <point x="125" y="203" type="curve" smooth="yes"/>
      <point x="177" y="249"/>
      <point x="246" y="313"/>
      <point x="314" y="372" type="curve" smooth="yes"/>
      <point x="336" y="393"/>
      <point x="360" y="414"/>
      <point x="381" y="433" type="curve" smooth="yes"/>
      <point x="431" y="479"/>
      <point x="491" y="412"/>
    </contour>
    <contour>
      <point x="121" y="433" type="curve" smooth="yes"/>
      <point x="149" y="408"/>
      <point x="172" y="387"/>
      <point x="190" y="370" type="curve" smooth="yes"/>
      <point x="205" y="358"/>
      <point x="217" y="345"/>
      <point x="233" y="331" type="curve" smooth="yes"/>
      <point x="293" y="277"/>
      <point x="291" y="232"/>
      <point x="232" y="179" type="curve" smooth="yes"/>
      <point x="216" y="164"/>
      <point x="200" y="149"/>
      <point x="184" y="135" type="curve" smooth="yes"/>
      <point x="163" y="117"/>
      <point x="136" y="92"/>
      <point x="112" y="71" type="curve" smooth="yes"/>
      <point x="63" y="25"/>
      <point x="2" y="92"/>
      <point x="52" y="137" type="curve" smooth="yes"/>
      <point x="76" y="160"/>
      <point x="103" y="185"/>
      <point x="124" y="203" type="curve" smooth="yes"/>
      <point x="140" y="217"/>
      <point x="156" y="232"/>
      <point x="172" y="245" type="curve" smooth="yes"/>
      <point x="184" y="256"/>
      <point x="184" y="253"/>
      <point x="171" y="265" type="curve" smooth="yes"/>
      <point x="159" y="277"/>
      <point x="143" y="292"/>
      <point x="130" y="304" type="curve" smooth="yes"/>
      <point x="102" y="329"/>
      <point x="79" y="350"/>
      <point x="61" y="367" type="curve" smooth="yes"/>
      <point x="11" y="412"/>
      <point x="71" y="479"/>
    </contour>
  </outline>
</glyph>
<glyph name="y" format="2">
  <advance width="488"/>
  <unicode hex="0079"/>
  <outline>
    <contour>
      <point x="126" y="10" type="curve" smooth="yes"/>
      <point x="139" y="31"/>
      <point x="154" y="54"/>
      <point x="168" y="76" type="curve" smooth="yes"/>
      <point x="176" y="89"/>
      <point x="184" y="102"/>
      <point x="191" y="113" type="curve" smooth="yes"/>
      <point x="199" y="126"/>
      <point x="157" y="176"/>
      <point x="141" y="199" type="curve" smooth="yes"/>
      <point x="113" y="240"/>
      <point x="64" y="316"/>
      <point x="27" y="372" type="curve" smooth="yes"/>
      <point x="-11" y="428"/>
      <point x="64" y="478"/>
      <point x="101" y="422" type="curve" smooth="yes"/>
      <point x="140" y="364"/>
      <point x="187" y="290"/>
      <point x="215" y="251" type="curve" smooth="yes"/>
      <point x="288" y="147"/>
      <point x="303" y="121"/>
      <point x="267" y="65" type="curve" smooth="yes"/>
      <point x="260" y="54"/>
      <point x="252" y="41"/>
      <point x="244" y="28" type="curve" smooth="yes"/>
      <point x="230" y="6"/>
      <point x="215" y="-19"/>
      <point x="200" y="-40" type="curve" smooth="yes"/>
      <point x="163" y="-96"/>
      <point x="88" y="-46"/>
    </contour>
    <contour>
      <point x="463" y="373" type="curve" smooth="yes"/>
      <point x="442" y="340"/>
      <point x="415" y="297"/>
      <point x="400" y="273" type="curve" smooth="yes"/>
      <point x="357" y="204"/>
      <point x="295" y="109"/>
      <point x="267" y="65" type="curve"/>
      <point x="259" y="52"/>
      <point x="250" y="37"/>
      <point x="242" y="25" type="curve" smooth="yes"/>
      <point x="228" y="4"/>
      <point x="215" y="-18"/>
      <point x="200" y="-40" type="curve" smooth="yes"/>
      <point x="163" y="-96"/>
      <point x="88" y="-46"/>
      <point x="126" y="10" type="curve" smooth="yes"/>
      <point x="139" y="30"/>
      <point x="152" y="52"/>
      <point x="166" y="73" type="curve" smooth="yes"/>
      <point x="174" y="87"/>
      <point x="183" y="98"/>
      <point x="191" y="113" type="curve" smooth="yes"/>
      <point x="219" y="157"/>
      <point x="281" y="252"/>
      <point x="324" y="321" type="curve" smooth="yes"/>
      <point x="339" y="345"/>
      <point x="366" y="388"/>
      <point x="387" y="421" type="curve" smooth="yes"/>
      <point x="423" y="478"/>
      <point x="499" y="430"/>
    </contour>
  </outline>
</glyph>
<glyph name="sterling" format="2">
  <advance width="541"/>
  <unicode hex="00A3"/>
  <outline>
    <contour>
      <point x="427" y="466" type="curve" smooth="yes"/>
      <point x="383" y="480"/>
      <point x="341" y="485"/>
      <point x="304" y="485" type="curve" smooth="yes"/>
      <point x="247" y="485"/>
      <point x="199" y="469"/>
      <point x="199" y="427" type="curve" smooth="yes"/>
      <point x="199" y="365"/>
      <point x="271" y="256"/>
      <point x="271" y="190" type="curve" smooth="yes"/>
      <point x="271" y="111"/>
      <point x="215" y="63"/>
      <point x="142" y="63" type="curve" smooth="yes"/>
      <point x="114" y="63"/>
      <point x="-128" y="153"/>
      <point x="147" y="153" type="curve" smooth="yes"/>
      <point x="188" y="153"/>
      <point x="254" y="153"/>
      <point x="306" y="153" type="curve" smooth="yes"/>
      <point x="373" y="153"/>
      <point x="424" y="153"/>
      <point x="456" y="153" type="curve" smooth="yes"/>
      <point x="524" y="153"/>
      <point x="524" y="63"/>
      <point x="456" y="63" type="curve" smooth="yes"/>
      <point x="408" y="63"/>
      <point x="351" y="63"/>
      <point x="306" y="63" type="curve" smooth="yes"/>
      <point x="229" y="63"/>
      <point x="175" y="63"/>
      <point x="147" y="63" type="curve" smooth="yes"/>
      <point x="118" y="63"/>
      <point x="-128" y="153"/>
      <point x="142" y="153" type="curve" smooth="yes"/>
      <point x="167" y="153"/>
      <point x="181" y="163"/>
      <point x="181" y="190" type="curve" smooth="yes"/>
      <point x="181" y="235"/>
      <point x="109" y="335"/>
      <point x="109" y="427" type="curve" smooth="yes"/>
      <point x="109" y="515"/>
      <point x="183" y="575"/>
      <point x="304" y="575" type="curve" smooth="yes"/>
      <point x="349" y="575"/>
      <point x="399" y="568"/>
      <point x="453" y="552" type="curve" smooth="yes"/>
      <point x="518" y="532"/>
      <point x="491" y="446"/>
    </contour>
    <contour>
      <point x="90" y="350" type="curve" smooth="yes"/>
      <point x="157" y="350"/>
      <point x="213" y="350"/>
      <point x="256" y="350" type="curve" smooth="yes"/>
      <point x="321" y="350"/>
      <point x="372" y="350"/>
      <point x="416" y="350" type="curve" smooth="yes"/>
      <point x="484" y="350"/>
      <point x="484" y="260"/>
      <point x="416" y="260" type="curve" smooth="yes"/>
      <point x="350" y="260"/>
      <point x="299" y="260"/>
      <point x="256" y="260" type="curve" smooth="yes"/>
      <point x="193" y="260"/>
      <point x="135" y="260"/>
      <point x="90" y="260" type="curve" smooth="yes"/>
      <point x="23" y="260"/>
      <point x="23" y="350"/>
    </contour>
  </outline>
</glyph>
<glyph name="copyright" format="2">
  <advance width="803"/>
  <unicode hex="00A9"/>
  <outline>
    <contour>
      <point x="462" y="349" type="curve" smooth="yes"/>
      <point x="411" y="366"/>
      <point x="345" y="356"/>
      <point x="345" y="316" type="curve" smooth="yes"/>
      <point x="345" y="276"/>
      <point x="411" y="266"/>
      <point x="462" y="283" type="curve" smooth="yes"/>
      <point x="526" y="304"/>
      <point x="554" y="218"/>
      <point x="490" y="197" type="curve" smooth="yes"/>
      <point x="364" y="157"/>
      <point x="255" y="218"/>
      <point x="255" y="316" type="curve" smooth="yes"/>
      <point x="255" y="414"/>
      <point x="364" y="475"/>
      <point x="490" y="435" type="curve" smooth="yes"/>
      <point x="554" y="414"/>
      <point x="526" y="328"/>
    </contour>
    <contour>
      <point x="340" y="60" type="curve" smooth="yes"/>
      <point x="290" y="66"/>
      <point x="245" y="79"/>
      <point x="205" y="99" type="curve" smooth="yes"/>
      <point x="113" y="145"/>
      <point x="57" y="224"/>
      <point x="57" y="316" type="curve" smooth="yes"/>
      <point x="57" y="463"/>
      <point x="198" y="576"/>
      <point x="406" y="576" type="curve" smooth="yes"/>
      <point x="613" y="576"/>
      <point x="746" y="463"/>
      <point x="746" y="316" type="curve" smooth="yes"/>
      <point x="746" y="224"/>
      <point x="694" y="146"/>
      <point x="604" y="99" type="curve" smooth="yes"/>
      <point x="566" y="80"/>
      <point x="521" y="66"/>
      <point x="471" y="60" type="curve" smooth="yes"/>
      <point x="404" y="53"/>
      <point x="394" y="142"/>
      <point x="461" y="150" type="curve" smooth="yes"/>
      <point x="499" y="154"/>
      <point x="534" y="164"/>
      <point x="562" y="179" type="curve" smooth="yes"/>
      <point x="620" y="210"/>
      <point x="656" y="256"/>
      <point x="656" y="316" type="curve" smooth="yes"/>
      <point x="656" y="419"/>
      <point x="551" y="486"/>
      <point x="406" y="486" type="curve" smooth="yes"/>
      <point x="261" y="486"/>
      <point x="147" y="418"/>
      <point x="147" y="316" type="curve" smooth="yes"/>
      <point x="147" y="256"/>
      <point x="186" y="209"/>
      <point x="245" y="179" type="curve" smooth="yes"/>
      <point x="275" y="165"/>
      <point x="310" y="154"/>
      <point x="350" y="150" type="curve" smooth="yes"/>
      <point x="417" y="142"/>
      <point x="407" y="53"/>
    </contour>
  </outline>
</glyph>
<glyph name="degree" format="2">
  <advance width="532"/>
  <unicode hex="00B0"/>
  <outline>
    <contour>
      <point x="198" y="262" type="curve" smooth="yes"/>
      <point x="112" y="283"/>
      <point x="60" y="343"/>
      <point x="60" y="416" type="curve" smooth="yes"/>
      <point x="60" y="506"/>
      <point x="140" y="577"/>
      <point x="265" y="577" type="curve" smooth="yes"/>
      <point x="391" y="577"/>
      <point x="473" y="506"/>
      <point x="473" y="416" type="curve" smooth="yes"/>
      <point x="473" y="343"/>
      <point x="419" y="283"/>
      <point x="333" y="262" type="curve" smooth="yes"/>
      <point x="268" y="247"/>
      <point x="247" y="334"/>
      <point x="313" y="350" type="curve" smooth="yes"/>
      <point x="352" y="359"/>
      <point x="383" y="382"/>
      <point x="383" y="416" type="curve" smooth="yes"/>
      <point x="383" y="461"/>
      <point x="328" y="487"/>
      <point x="265" y="487" type="curve" smooth="yes"/>
      <point x="202" y="487"/>
      <point x="150" y="461"/>
      <point x="150" y="416" type="curve" smooth="yes"/>
      <point x="150" y="382"/>
      <point x="179" y="359"/>
      <point x="218" y="350" type="curve" smooth="yes"/>
      <point x="284" y="334"/>
      <point x="263" y="247"/>
    </contour>
  </outline>
</glyph>
<glyph name="paragraph" format="2">
  <advance width="778"/>
  <unicode hex="00B6"/>
  <outline>
    <contour>
      <point x="581" y="104" type="curve" smooth="yes"/>
      <point x="581" y="173"/>
      <point x="581" y="357"/>
      <point x="581" y="451" type="curve" smooth="yes"/>
      <point x="581" y="488"/>
      <point x="568" y="480"/>
      <point x="498" y="480" type="curve" smooth="yes"/>
      <point x="405" y="480"/>
      <point x="333" y="480"/>
      <point x="271" y="480" type="curve" smooth="yes"/>
      <point x="200" y="480"/>
      <point x="137" y="452"/>
      <point x="137" y="404" type="curve" smooth="yes"/>
      <point x="137" y="359"/>
      <point x="203" y="330"/>
      <point x="258" y="330" type="curve" smooth="yes"/>
      <point x="283" y="330"/>
      <point x="351" y="329"/>
      <point x="351" y="347" type="curve" smooth="yes"/>
      <point x="351" y="391"/>
      <point x="351" y="394"/>
      <point x="351" y="425" type="curve" smooth="yes"/>
      <point x="351" y="443"/>
      <point x="441" y="658"/>
      <point x="441" y="424" type="curve" smooth="yes"/>
      <point x="441" y="277"/>
      <point x="441" y="156"/>
      <point x="441" y="104" type="curve" smooth="yes"/>
      <point x="441" y="36"/>
      <point x="351" y="37"/>
      <point x="351" y="104" type="curve" smooth="yes"/>
      <point x="351" y="181"/>
      <point x="351" y="325"/>
      <point x="351" y="424" type="curve" smooth="yes"/>
      <point x="351" y="442"/>
      <point x="441" y="658"/>
      <point x="441" y="425" type="curve" smooth="yes"/>
      <point x="441" y="379"/>
      <point x="441" y="376"/>
      <point x="441" y="347" type="curve" smooth="yes"/>
      <point x="441" y="263"/>
      <point x="374" y="240"/>
      <point x="258" y="240" type="curve" smooth="yes"/>
      <point x="144" y="240"/>
      <point x="47" y="310"/>
      <point x="47" y="404" type="curve" smooth="yes"/>
      <point x="47" y="497"/>
      <point x="134" y="570"/>
      <point x="271" y="570" type="curve" smooth="yes"/>
      <point x="364" y="570"/>
      <point x="436" y="570"/>
      <point x="498" y="570" type="curve" smooth="yes"/>
      <point x="658" y="570"/>
      <point x="671" y="535"/>
      <point x="671" y="451" type="curve" smooth="yes"/>
      <point x="671" y="311"/>
      <point x="671" y="151"/>
      <point x="671" y="104" type="curve" smooth="yes"/>
      <point x="671" y="37"/>
      <point x="581" y="37"/>
    </contour>
  </outline>
</glyph>
<glyph name="onesuperior" format="2">
  <advance width="338"/>
  <unicode hex="00B9"/>
  <outline>
    <contour>
      <point x="73" y="557" type="curve" smooth="yes"/>
      <point x="224" y="579"/>
      <point x="235" y="531"/>
      <point x="235" y="466" type="curve" smooth="yes"/>
      <point x="235" y="397"/>
      <point x="235" y="342"/>
      <point x="235" y="296" type="curve" smooth="yes"/>
      <point x="235" y="229"/>
      <point x="145" y="229"/>
      <point x="145" y="296" type="curve" smooth="yes"/>
      <point x="145" y="364"/>
      <point x="145" y="419"/>
      <point x="145" y="466" type="curve" smooth="yes"/>
      <point x="145" y="478"/>
      <point x="115" y="472"/>
      <point x="87" y="467" type="curve" smooth="yes"/>
      <point x="20" y="458"/>
      <point x="7" y="547"/>
    </contour>
  </outline>
</glyph>
<glyph name="threequarters" format="2">
  <advance width="960"/>
  <unicode hex="00BE"/>
  <outline>
    <contour>
      <point x="707" y="498" type="curve" smooth="yes"/>
      <point x="331" y="74" type="line" smooth="yes"/>
      <point x="286" y="24"/>
      <point x="219" y="83"/>
      <point x="263" y="134" type="curve" smooth="yes"/>
      <point x="639" y="558" type="line" smooth="yes"/>
      <point x="684" y="608"/>
      <point x="751" y="549"/>
    </contour>
    <contour>
      <point x="880" y="125" type="curve" smooth="yes"/>
      <point x="807" y="125"/>
      <point x="747" y="125"/>
      <point x="697" y="125" type="curve" smooth="yes"/>
      <point x="591" y="125"/>
      <point x="557" y="187"/>
      <point x="610" y="254" type="curve" smooth="yes"/>
      <point x="628" y="278"/>
      <point x="637" y="289"/>
      <point x="664" y="323" type="curve" smooth="yes"/>
      <point x="733" y="411"/>
      <point x="847" y="388"/>
      <point x="847" y="288" type="curve" smooth="yes"/>
      <point x="847" y="232"/>
      <point x="847" y="157"/>
      <point x="847" y="104" type="curve" smooth="yes"/>
      <point x="847" y="36"/>
      <point x="757" y="37"/>
      <point x="757" y="104" type="curve" smooth="yes"/>
      <point x="757" y="183"/>
      <point x="757" y="250"/>
      <point x="757" y="288" type="curve" smooth="yes"/>
      <point x="757" y="292"/>
      <point x="737" y="271"/>
      <point x="734" y="267" type="curve" smooth="yes"/>
      <point x="707" y="233"/>
      <point x="700" y="224"/>
      <point x="680" y="198" type="curve" smooth="yes"/>
      <point x="678" y="195"/>
      <point x="692" y="215"/>
      <point x="697" y="215" type="curve" smooth="yes"/>
      <point x="771" y="215"/>
      <point x="831" y="215"/>
      <point x="880" y="215" type="curve" smooth="yes"/>
      <point x="948" y="215"/>
      <point x="948" y="125"/>
    </contour>
    <contour>
      <point x="122" y="354" type="curve" smooth="yes"/>
      <point x="157" y="345"/>
      <point x="276" y="339"/>
      <point x="276" y="358" type="curve" smooth="yes"/>
      <point x="276" y="365"/>
      <point x="224" y="372"/>
      <point x="207" y="373" type="curve" smooth="yes"/>
      <point x="92" y="378"/>
      <point x="87" y="441"/>
      <point x="195" y="504" type="curve" smooth="yes"/>
      <point x="201" y="507"/>
      <point x="255" y="480"/>
      <point x="250" y="480" type="curve" smooth="yes"/>
      <point x="184" y="480"/>
      <point x="144" y="480"/>
      <point x="112" y="480" type="curve" smooth="yes"/>
      <point x="44" y="480"/>
      <point x="45" y="570"/>
      <point x="112" y="570" type="curve" smooth="yes"/>
      <point x="160" y="570"/>
      <point x="206" y="570"/>
      <point x="250" y="570" type="curve" smooth="yes"/>
      <point x="362" y="570"/>
      <point x="368" y="500"/>
      <point x="241" y="426" type="curve" smooth="yes"/>
      <point x="236" y="423"/>
      <point x="206" y="463"/>
      <point x="211" y="463" type="curve" smooth="yes"/>
      <point x="329" y="458"/>
      <point x="366" y="406"/>
      <point x="366" y="358" type="curve" smooth="yes"/>
      <point x="366" y="276"/>
      <point x="249" y="227"/>
      <point x="98" y="268" type="curve" smooth="yes"/>
      <point x="33" y="285"/>
      <point x="56" y="372"/>
    </contour>
  </outline>
</glyph>
<glyph name="Thorn" format="2">
  <advance width="593"/>
  <unicode hex="00DE"/>
  <outline>
    <contour>
      <point x="129" y="477" type="curve" smooth="yes"/>
      <point x="295" y="477" type="line" smooth="yes"/>
      <point x="438" y="477"/>
      <point x="520" y="403"/>
      <point x="520" y="312" type="curve" smooth="yes"/>
      <point x="520" y="218"/>
      <point x="435" y="148"/>
      <point x="307" y="148" type="curve" smooth="yes"/>
      <point x="129" y="148" type="line" smooth="yes"/>
      <point x="62" y="148"/>
      <point x="62" y="238"/>
      <point x="129" y="238" type="curve" smooth="yes"/>
      <point x="307" y="238" type="line" smooth="yes"/>
      <point x="373" y="238"/>
      <point x="430" y="264"/>
      <point x="430" y="312" type="curve" smooth="yes"/>
      <point x="430" y="360"/>
      <point x="370" y="387"/>
      <point x="295" y="387" type="curve" smooth="yes"/>
      <point x="129" y="387" type="line" smooth="yes"/>
      <point x="62" y="387"/>
      <point x="62" y="477"/>
    </contour>
    <contour>
      <point x="80" y="102" type="curve" smooth="yes"/>
      <point x="80" y="522" type="line" smooth="yes"/>
      <point x="80" y="590"/>
      <point x="170" y="590"/>
      <point x="170" y="522" type="curve" smooth="yes"/>
      <point x="170" y="102" type="line" smooth="yes"/>
      <point x="170" y="35"/>
      <point x="80" y="35"/>
    </contour>
  </outline>
</glyph>
<glyph name="divide" format="2">
  <advance width="540"/>
  <unicode hex="00F7"/>
  <outline>
    <contour>
      <point x="80" y="339" type="curve" smooth="yes"/>
      <point x="232" y="339"/>
      <point x="358" y="339"/>
      <point x="460" y="339" type="curve" smooth="yes"/>
      <point x="528" y="339"/>
      <point x="528" y="249"/>
      <point x="460" y="249" type="curve" smooth="yes"/>
      <point x="308" y="249"/>
      <point x="182" y="249"/>
      <point x="80" y="249" type="curve" smooth="yes"/>
      <point x="13" y="249"/>
      <point x="13" y="339"/>
    </contour>
    <contour>
      <point x="272" y="356" type="curve" smooth="yes"/>
      <point x="184" y="367"/>
      <point x="185" y="469"/>
      <point x="273" y="477" type="curve" smooth="yes"/>
      <point x="340" y="483"/>
      <point x="348" y="393"/>
      <point x="281" y="387" type="curve" smooth="yes"/>
      <point x="278" y="387"/>
      <point x="280" y="446"/>
      <point x="282" y="446" type="curve" smooth="yes"/>
      <point x="349" y="438"/>
      <point x="339" y="348"/>
    </contour>
    <contour>
      <point x="272" y="111" type="curve" smooth="yes"/>
      <point x="184" y="122"/>
      <point x="185" y="224"/>
      <point x="273" y="232" type="curve" smooth="yes"/>
      <point x="340" y="238"/>
      <point x="348" y="148"/>
      <point x="281" y="142" type="curve" smooth="yes"/>
      <point x="278" y="142"/>
      <point x="280" y="201"/>
      <point x="282" y="201" type="curve" smooth="yes"/>
      <point x="349" y="193"/>
      <point x="339" y="103"/>
    </contour>
  </outline>
</glyph>
<glyph name="ring" format="2">
  <advance width="420"/>
  <unicode hex="02DA"/>
  <outline>
    <contour>
      <point x="137" y="452" type="curve" smooth="yes"/>
      <point x="98" y="470"/>
      <point x="77" y="503"/>
      <point x="77" y="542" type="curve" smooth="yes"/>
      <point x="77" y="597"/>
      <point x="124" y="643"/>
      <point x="209" y="643" type="curve" smooth="yes"/>
      <point x="296" y="643"/>
      <point x="344" y="597"/>
      <point x="344" y="542" type="curve" smooth="yes"/>
      <point x="344" y="505"/>
      <point x="322" y="470"/>
      <point x="281" y="452" type="curve" smooth="yes"/>
      <point x="219" y="425"/>
      <point x="183" y="507"/>
      <point x="245" y="534" type="curve" smooth="yes"/>
      <point x="248" y="536"/>
      <point x="254" y="539"/>
      <point x="254" y="542" type="curve" smooth="yes"/>
      <point x="254" y="548"/>
      <point x="219" y="553"/>
      <point x="209" y="553" type="curve" smooth="yes"/>
      <point x="198" y="553"/>
      <point x="167" y="549"/>
      <point x="167" y="542" type="curve" smooth="yes"/>
      <point x="167" y="538"/>
      <point x="170" y="536"/>
      <point x="175" y="534" type="curve" smooth="yes"/>
      <point x="236" y="506"/>
      <point x="199" y="424"/>
    </contour>
  </outline>
</glyph>
<glyph name="quotesinglbase" format="2">
  <advance width="274"/>
  <unicode hex="201A"/>
  <outline>
    <contour>
      <point x="80" y="24" type="curve" smooth="yes"/>
      <point x="96" y="42"/>
      <point x="121" y="85"/>
      <point x="104" y="95" type="curve" smooth="yes"/>
      <point x="48" y="132"/>
      <point x="97" y="208"/>
      <point x="154" y="171" type="curve" smooth="yes"/>
      <point x="219" y="128"/>
      <point x="212" y="42"/>
      <point x="150" y="-34" type="curve" smooth="yes"/>
      <point x="107" y="-86"/>
      <point x="37" y="-29"/>
    </contour>
  </outline>
</glyph>
<glyph name="Euro" format="2">
  <advance width="606"/>
  <unicode hex="20AC"/>
  <outline>
    <contour>
      <point x="538" y="98" type="curve" smooth="yes"/>
      <point x="489" y="84"/>
      <point x="442" y="79"/>
      <point x="398" y="79" type="curve" smooth="yes"/>
      <point x="221" y="79"/>
      <point x="103" y="174"/>
      <point x="103" y="316" type="curve" smooth="yes"/>
      <point x="103" y="457"/>
      <point x="220" y="553"/>
      <point x="394" y="553" type="curve" smooth="yes"/>
      <point x="438" y="553"/>
      <point x="486" y="548"/>
      <point x="537" y="535" type="curve" smooth="yes"/>
      <point x="603" y="518"/>
      <point x="580" y="431"/>
      <point x="515" y="447" type="curve" smooth="yes"/>
      <point x="472" y="458"/>
      <point x="432" y="463"/>
      <point x="394" y="463" type="curve" smooth="yes"/>
      <point x="277" y="463"/>
      <point x="193" y="411"/>
      <point x="193" y="316" type="curve" smooth="yes"/>
      <point x="193" y="221"/>
      <point x="279" y="169"/>
      <point x="398" y="169" type="curve" smooth="yes"/>
      <point x="434" y="169"/>
      <point x="473" y="174"/>
      <point x="514" y="184" type="curve" smooth="yes"/>
      <point x="580" y="202"/>
      <point x="603" y="115"/>
    </contour>
    <contour>
      <point x="70" y="418" type="curve" smooth="yes"/>
      <point x="119" y="418"/>
      <point x="169" y="418"/>
      <point x="201" y="418" type="curve" smooth="yes"/>
      <point x="274" y="418"/>
      <point x="265" y="418"/>
      <point x="311" y="418" type="curve" smooth="yes"/>
      <point x="371" y="418"/>
      <point x="417" y="418"/>
      <point x="456" y="418" type="curve" smooth="yes"/>
      <point x="524" y="418"/>
      <point x="524" y="328"/>
      <point x="456" y="328" type="curve" smooth="yes"/>
      <point x="398" y="328"/>
      <point x="351" y="328"/>
      <point x="311" y="328" type="curve" smooth="yes"/>
      <point x="243" y="328"/>
      <point x="250" y="328"/>
      <point x="201" y="328" type="curve" smooth="yes"/>
      <point x="153" y="328"/>
      <point x="103" y="328"/>
      <point x="70" y="328" type="curve" smooth="yes"/>
      <point x="3" y="328"/>
      <point x="3" y="418"/>
    </contour>
    <contour>
      <point x="70" y="306" type="curve" smooth="yes"/>
      <point x="119" y="306"/>
      <point x="170" y="306"/>
      <point x="201" y="306" type="curve" smooth="yes"/>
      <point x="274" y="306"/>
      <point x="266" y="306"/>
      <point x="311" y="306" type="curve" smooth="yes"/>
      <point x="365" y="306"/>
      <point x="407" y="306"/>
      <point x="442" y="306" type="curve" smooth="yes"/>
      <point x="510" y="306"/>
      <point x="510" y="216"/>
      <point x="442" y="216" type="curve" smooth="yes"/>
      <point x="390" y="216"/>
      <point x="347" y="216"/>
      <point x="311" y="216" type="curve" smooth="yes"/>
      <point x="244" y="216"/>
      <point x="250" y="216"/>
      <point x="201" y="216" type="curve" smooth="yes"/>
      <point x="155" y="216"/>
      <point x="103" y="216"/>
      <point x="70" y="216" type="curve" smooth="yes"/>
      <point x="3" y="216"/>
      <point x="3" y="306"/>
    </contour>
  </outline>
</glyph>
<glyph name="divisionslash" format="2">
  <advance width="518"/>
  <unicode hex="2215"/>
  <outline>
    <contour>
      <point x="483" y="534" type="curve" smooth="yes"/>
      <point x="107" y="25" type="line" smooth="yes"/>
      <point x="67" y="-29"/>
      <point x="-5" y="24"/>
      <point x="35" y="79" type="curve" smooth="yes"/>
      <point x="411" y="588" type="line" smooth="yes"/>
      <point x="451" y="642"/>
      <point x="523" y="589"/>
    </contour>
  </outline>
</glyph>
<glyph name="D" format="2">
  <advance width="686"/>
  <outline>
    <contour>
      <point x="85.0406061847178" y="185.65270113560982" type="curve" smooth="yes"/>
      <point x="85.04015865297691" y="224.1152212593402"/>
      <point x="85.04030157162074" y="231.23482512352444"/>
      <point x="85.03135093680254" y="282.5181852884984" type="curve" smooth="yes"/>
      <point x="84.981368504002" y="568.8964316690501" type="line" smooth="yes"/>
      <point x="84.97002604283246" y="633.8839474296857"/>
      <point x="133.06415780399152" y="681.8376618407357"/>
      <point x="224.97038257780542" y="681.8376618407357" type="curve" smooth="yes"/>
      <point x="324.97038105471836" y="681.8376618407357" type="line" smooth="yes"/>
      <point x="510.1034056818955" y="681.8376618407357"/>
      <point x="635.9808683182431" y="571.7316544511115"/>
      <point x="636.0072769287998" y="420.42146091204074" type="curve" smooth="yes"/>
      <point x="636.0337011174695" y="269.02201135992726"/>
      <point x="512.821002179468" y="157.57359312880715"/>
      <point x="319.04442919469693" y="157.57359312880715" type="curve" smooth="yes"/>
      <point x="294.93939508898364" y="157.57359312880715"/>
      <point x="283.27884769264955" y="155.91119688407315"/>
      <point x="271.8273946780173" y="146.9626593824157" type="curve" smooth="yes"/>
      <point x="212.73079921182483" y="100.78265933580246"/>
      <point x="151.15746581634056" y="179.57811995739252"/>
      <point x="210.25406128253306" y="225.75812000400575" type="curve" smooth="yes"/>
      <point x="236.1611814443718" y="246.00278555272993"/>
      <point x="264.51056224488906" y="257.57359312880715"/>
      <point x="319.04442919469693" y="257.57359312880715" type="curve" smooth="yes"/>
      <point x="448.72086448706256" y="257.57359312880715"/>
      <point x="536.0249616761253" y="319.08659540262323"/>
      <point x="536.0072784518869" y="420.4040076198752" type="curve" smooth="yes"/>
      <point x="535.9898077336688" y="520.5038500236611"/>
      <point x="447.4458478786469" y="581.8376618407357"/>
      <point x="324.97038105471836" y="581.8376618407357" type="curve" smooth="yes"/>
      <point x="224.97038257780542" y="581.8376618407357" type="line" smooth="yes"/>
      <point x="209.09583297085103" y="581.8376618407357"/>
      <point x="184.97940784851724" y="580.1388868075419"/>
      <point x="184.98136698091494" y="568.9138849612157" type="curve" smooth="yes"/>
      <point x="185.03134941371547" y="282.53563858066394" type="line" smooth="yes"/>
      <point x="185.03875543581051" y="240.10225746288012"/>
      <point x="185.04023587684378" y="217.47890052677636"/>
      <point x="185.04060617794855" y="185.65386468843852" type="curve" smooth="yes"/>
      <point x="185.04147884257006" y="110.65386469351547"/>
      <point x="85.04147884933933" y="110.65270114068677"/>
    </contour>
  </outline>
</glyph>
<glyph name="H" format="2">
  <advance width="688"/>
  <outline>
    <contour>
      <point x="84.96751105236056" y="612.221930307133" type="curve" smooth="yes"/>
      <point x="84.999660809236" y="620.9935750246866"/>
      <point x="184.94790813537966" y="760.6190368566555"/>
      <point x="184.9823543034604" y="563.2570307117234" type="curve" smooth="yes"/>
      <point x="185.0339411106471" y="267.68639617574644" type="line" smooth="yes"/>
      <point x="185.0408568540794" y="228.06210488795986"/>
      <point x="185.03974457527235" y="182.1264067712511"/>
      <point x="185.0351752447903" y="155.9460714561064" type="curve" smooth="yes"/>
      <point x="185.02053541012916" y="72.06599714489367"/>
      <point x="85.03739037357752" y="35.78281423877946"/>
      <point x="85.01543062158584" y="161.6029257055988" type="curve" smooth="yes"/>
      <point x="84.99667178260884" y="269.083156445954" type="line" smooth="yes"/>
      <point x="84.98706436567299" y="324.12960096992043"/>
      <point x="132.29481586352856" y="373.53910524340097"/>
      <point x="234.9871666650754" y="373.53910524340097" type="curve" smooth="yes"/>
      <point x="347.08502421496615" y="373.53910524340097"/>
      <point x="386.9469420422439" y="373.539105243401"/>
      <point x="462.9871631924368" y="373.53910524340097" type="curve" smooth="yes"/>
      <point x="467.43694026435116" y="373.5391052434009"/>
      <point x="512.9797386718964" y="366.065384676268"/>
      <point x="512.9792639723767" y="368.7852125932572" type="curve" smooth="yes"/>
      <point x="512.9623563346145" y="465.65884161581425" type="line" smooth="yes"/>
      <point x="512.9553170957639" y="505.99070953373985"/>
      <point x="512.9566762834038" y="551.9259378014963"/>
      <point x="512.9612456138857" y="578.1062731166408" type="curve" smooth="yes"/>
      <point x="512.9759884644361" y="662.5765849979396"/>
      <point x="612.9591405176013" y="696.2248769636656"/>
      <point x="612.9808668236758" y="571.7423120859619" type="curve" smooth="yes"/>
      <point x="613.0320833906195" y="278.2929978935447" type="line" smooth="yes"/>
      <point x="613.037884774594" y="245.0535160179474"/>
      <point x="613.0408464625659" y="221.01434831313864"/>
      <point x="613.0410933299689" y="188.48208945617102" type="curve" smooth="yes"/>
      <point x="613.04166245907" y="113.48208945833042"/>
      <point x="513.0416624619493" y="113.48133061952907"/>
      <point x="513.0410933328482" y="188.48133061736968" type="curve" smooth="yes"/>
      <point x="513.0408265140811" y="223.64278603415917"/>
      <point x="513.0383551547269" y="242.34970971900722"/>
      <point x="513.0320849137066" y="278.2755446013791" type="curve" smooth="yes"/>
      <point x="512.9808683467629" y="571.7248587937963" type="line" smooth="yes"/>
      <point x="512.9803471080745" y="574.711336506569"/>
      <point x="612.9615977884798" y="580.1153582724282"/>
      <point x="612.9612440907986" y="578.0888198244752" type="curve" smooth="yes"/>
      <point x="612.9566797636613" y="551.9371515646034"/>
      <point x="612.9553232805325" y="505.96400006508"/>
      <point x="612.9623548115273" y="465.6762949079798" type="curve" smooth="yes"/>
      <point x="612.9792624492895" y="368.80266588542275" type="line" smooth="yes"/>
      <point x="612.9900615794746" y="306.92820736800223"/>
      <point x="564.2169303876748" y="273.5391052434009"/>
      <point x="462.9871631924368" y="273.53910524340097" type="curve" smooth="yes"/>
      <point x="349.6708506691779" y="273.539105243401"/>
      <point x="310.20975102870716" y="273.53910524340097"/>
      <point x="234.9871666650754" y="273.53910524340097" type="curve" smooth="yes"/>
      <point x="230.31112974204692" y="273.53910524340097"/>
      <point x="184.99623279133667" y="271.60711781848204"/>
      <point x="184.99667025952178" y="269.10060973811954" type="curve" smooth="yes"/>
      <point x="185.01542909849877" y="161.6203789977643" type="line" smooth="yes"/>
      <point x="185.01595964502113" y="158.58057132583528"/>
      <point x="85.0348230701958" y="153.9369863003191"/>
      <point x="85.03517676787737" y="155.9635247482719" type="curve" smooth="yes"/>
      <point x="85.03974109501443" y="182.11519300814396"/>
      <point x="85.04085080453618" y="228.08803957134216"/>
      <point x="85.03394263373417" y="267.6689428835809" type="curve" smooth="yes"/>
      <point x="84.98235582654746" y="563.2395774195578" type="line" smooth="yes"/>
      <point x="84.98193697402982" y="565.6394255816067"/>
      <point x="184.9672303067404" y="611.9620735462049"/>
      <point x="184.966839377724" y="611.8554136278916" type="curve" smooth="yes"/>
      <point x="184.6919518682931" y="536.855917383869"/>
      <point x="84.69262354292965" y="537.2224340631104"/>
    </contour>
  </outline>
</glyph>
<glyph name="U" format="2">
  <advance width="688"/>
  <outline>
    <contour>
      <point x="79.96620702245977" y="607.8396644948571" type="curve" smooth="yes"/>
      <point x="79.99381201047547" y="639.4726507916822"/>
      <point x="179.9487491149125" y="741.7418864118957"/>
      <point x="179.9843288772441" y="551.943968630945" type="curve" smooth="yes"/>
      <point x="180.0169100056653" y="379.4099829020557" type="line" smooth="yes"/>
      <point x="180.0297189351566" y="311.2623483794032"/>
      <point x="252.3734554818913" y="243.43145750507622"/>
      <point x="345.0419605456387" y="243.4314575050762" type="curve" smooth="yes"/>
      <point x="441.44154717767384" y="243.43145750507617"/>
      <point x="508.0298167369376" y="310.6979312599965"/>
      <point x="508.016905261566" y="379.39114303061046" type="curve" smooth="yes"/>
      <point x="507.9843241284779" y="551.9251536217383" type="line" smooth="yes"/>
      <point x="507.98380288149633" y="554.6983555162739"/>
      <point x="607.9669218836461" y="610.1019710557048"/>
      <point x="607.9664844154607" y="609.8353212599213" type="curve" smooth="yes"/>
      <point x="607.8434388694135" y="534.8354221946986"/>
      <point x="507.84357344911655" y="534.9994829227614"/>
      <point x="507.96661899516374" y="609.9993819879842" type="curve" smooth="yes"/>
      <point x="507.9985978281195" y="629.49142636458"/>
      <point x="607.946219914498" y="754.661255009783"/>
      <point x="607.9843223454715" y="551.9440375115734" type="curve" smooth="yes"/>
      <point x="608.0169034951456" y="379.409938883666" type="line" smooth="yes"/>
      <point x="608.038528007096" y="264.36056334013693"/>
      <point x="506.4947731132765" y="143.43145750507617"/>
      <point x="345.0419605456387" y="143.4314575050762" type="curve" smooth="yes"/>
      <point x="187.96855442308754" y="143.43145750507622"/>
      <point x="80.03862294190013" y="263.8807638334293"/>
      <point x="80.01691178867179" y="379.39109901222076" type="curve" smooth="yes"/>
      <point x="79.9843306343308" y="551.9252225023666" type="line" smooth="yes"/>
      <point x="79.98379077997477" y="554.8050402968258"/>
      <point x="179.966587797822" y="608.2323676983387"/>
      <point x="179.96616894530442" y="607.7523980659289" type="curve" smooth="yes"/>
      <point x="179.90071912360833" y="532.7524266237954"/>
      <point x="79.90075720076369" y="532.8396930527235"/>
    </contour>
  </outline>
</glyph>
<glyph name="circumflex.cap" format="2">
  <advance width="562"/>
  <outline>
    <contour>
      <point x="135" y="670" type="curve" smooth="yes"/>
      <point x="257" y="745" type="line" smooth="yes"/>
      <point x="272" y="754"/>
      <point x="290" y="754"/>
      <point x="305" y="745" type="curve" smooth="yes"/>
      <point x="427" y="670" type="line" smooth="yes"/>
      <point x="484" y="635"/>
      <point x="437" y="558"/>
      <point x="379" y="594" type="curve" smooth="yes"/>
      <point x="257" y="669" type="line"/>
      <point x="305" y="669" type="line"/>
      <point x="183" y="594" type="line" smooth="yes"/>
      <point x="125" y="558"/>
      <point x="78" y="635"/>
    </contour>
  </outline>
</glyph>
<glyph name="ring.cap" format="2">
  <advance width="420"/>
  <outline>
    <contour>
      <point x="209" y="657" type="curve" smooth="yes"/>
      <point x="225" y="657"/>
      <point x="254" y="662"/>
      <point x="254" y="672" type="curve" smooth="yes"/>
      <point x="254" y="678"/>
      <point x="219" y="683"/>
      <point x="209" y="683" type="curve" smooth="yes"/>
      <point x="198" y="683"/>
      <point x="167" y="679"/>
      <point x="167" y="672" type="curve" smooth="yes"/>
      <point x="167" y="661"/>
      <point x="193" y="657"/>
    </contour>
    <contour>
      <point x="209" y="567" type="curve" smooth="yes"/>
      <point x="124" y="567"/>
      <point x="77" y="615"/>
      <point x="77" y="672" type="curve" smooth="yes"/>
      <point x="77" y="727"/>
      <point x="124" y="773"/>
      <point x="209" y="773" type="curve" smooth="yes"/>
      <point x="296" y="773"/>
      <point x="344" y="727"/>
      <point x="344" y="672" type="curve" smooth="yes"/>
      <point x="344" y="615"/>
      <point x="296" y="567"/>
    </contour>
  </outline>
</glyph>
<glyph name="t.alt" format="2">
  <advance width="336"/>
  <outline>
    <contour>
      <point x="279" y="351" type="curve" smooth="yes"/>
      <point x="255" y="351"/>
      <point x="238" y="351"/>
      <point x="222" y="351" type="curve" smooth="yes"/>
      <point x="177" y="351"/>
      <point x="141" y="351"/>
      <point x="111" y="351" type="curve" smooth="yes"/>
      <point x="90" y="351"/>
      <point x="74" y="351"/>
      <point x="57" y="351" type="curve" smooth="yes"/>
      <point x="-11" y="351"/>
      <point x="-10" y="441"/>
      <point x="57" y="441" type="curve" smooth="yes"/>
      <point x="83" y="441"/>
      <point x="97" y="441"/>
      <point x="111" y="441" type="curve" smooth="yes"/>
      <point x="156" y="441"/>
      <point x="192" y="441"/>
      <point x="222" y="441" type="curve" smooth="yes"/>
      <point x="245" y="441"/>
      <point x="263" y="441"/>
      <point x="279" y="441" type="curve" smooth="yes"/>
      <point x="347" y="441"/>
      <point x="347" y="351"/>
    </contour>
    <contour>
      <point x="337" y="73" type="curve" smooth="yes"/>
      <point x="221" y="32"/>
      <point x="118" y="79"/>
      <point x="118" y="174" type="curve" smooth="yes"/>
      <point x="118" y="290"/>
      <point x="118" y="334"/>
      <point x="118" y="403" type="curve" smooth="yes"/>
      <point x="118" y="447"/>
      <point x="118" y="470"/>
      <point x="118" y="491" type="curve" smooth="yes"/>
      <point x="118" y="559"/>
      <point x="208" y="559"/>
      <point x="208" y="491" type="curve" smooth="yes"/>
      <point x="208" y="459"/>
      <point x="208" y="432"/>
      <point x="208" y="403" type="curve" smooth="yes"/>
      <point x="208" y="299"/>
      <point x="208" y="252"/>
      <point x="208" y="174" type="curve" smooth="yes"/>
      <point x="208" y="142"/>
      <point x="268" y="144"/>
      <point x="307" y="157" type="curve" smooth="yes"/>
      <point x="371" y="180"/>
      <point x="401" y="95"/>
    </contour>
  </outline>
</glyph>
<glyph name="tilde.cap" format="2">
  <advance width="565"/>
  <outline>
    <contour>
      <point x="477" y="707" type="curve" smooth="yes"/>
      <point x="477" y="643"/>
      <point x="432" y="586"/>
      <point x="354" y="586" type="curve" smooth="yes"/>
      <point x="256" y="586"/>
      <point x="256" y="662"/>
      <point x="207" y="662" type="curve" smooth="yes"/>
      <point x="184" y="662"/>
      <point x="176" y="650"/>
      <point x="176" y="631" type="curve" smooth="yes"/>
      <point x="176" y="564"/>
      <point x="86" y="564"/>
      <point x="86" y="631" type="curve" smooth="yes"/>
      <point x="86" y="696"/>
      <point x="130" y="752"/>
      <point x="207" y="752" type="curve" smooth="yes"/>
      <point x="303" y="752"/>
      <point x="305" y="676"/>
      <point x="354" y="676" type="curve" smooth="yes"/>
      <point x="378" y="676"/>
      <point x="387" y="688"/>
      <point x="387" y="707" type="curve" smooth="yes"/>
      <point x="387" y="775"/>
      <point x="477" y="775"/>
    </contour>
  </outline>
</glyph>
